<svg
    xmlns="http://www.w3.org/2000/svg"
    xmlns:xlink="http://www.w3.org/1999/xlink"
    version="1.2"
    baseProfile="tiny" x="0"
    y="0"
    viewBox="3.082 0 93.83500000000001 100"
    xml:space="preserve"
    height="59.00725799999999"
    width="55.3694605443"
    class="icon-icon-0"
    data-fill-palette-color="accent"
    id="icon-0">
    <path d="M93.35 0v2.587c0 1.559-1.157 2.823-2.587 2.823h-4.956c-1.429 0-2.588-1.264-2.588-2.823V0H16.866v2.587c0 1.559-1.158 2.823-2.588 2.823H9.322c-1.429 0-2.587-1.264-2.587-2.823V0H3.082v100h3.659c-0.001-0.021-0.006-0.039-0.006-0.059v-2.694c0-1.56 1.158-2.824 2.587-2.824h4.956c1.43 0 2.588 1.265 2.588 2.824v2.694c0 0.02-0.005 0.038-0.006 0.059h66.364c0-0.021-0.006-0.039-0.006-0.059v-2.694c0-1.56 1.159-2.824 2.588-2.824h4.956c1.43 0 2.587 1.265 2.587 2.824v2.694c0 0.02-0.005 0.038-0.005 0.059h3.573V0H93.35zM16.866 86.032c0 1.559-1.158 2.823-2.588 2.823H9.322c-1.429 0-2.587-1.265-2.587-2.823v-2.693c0-1.56 1.158-2.824 2.587-2.824h4.956c1.43 0 2.588 1.265 2.588 2.824V86.032zM16.866 72.124c0 1.561-1.158 2.824-2.588 2.824H9.322c-1.429 0-2.587-1.264-2.587-2.824v-2.693c0-1.559 1.158-2.823 2.587-2.823h4.956c1.43 0 2.588 1.265 2.588 2.823V72.124zM16.866 58.217c0 1.561-1.158 2.824-2.588 2.824H9.322c-1.429 0-2.587-1.264-2.587-2.824v-2.694c0-1.559 1.158-2.823 2.587-2.823h4.956c1.43 0 2.588 1.265 2.588 2.823V58.217zM16.866 44.31c0 1.559-1.158 2.823-2.588 2.823H9.322c-1.429 0-2.587-1.264-2.587-2.823v-2.694c0-1.56 1.158-2.824 2.587-2.824h4.956c1.43 0 2.588 1.264 2.588 2.824V44.31zM16.866 30.402c0 1.56-1.158 2.824-2.588 2.824H9.322c-1.429 0-2.587-1.264-2.587-2.824v-2.694c0-1.56 1.158-2.824 2.587-2.824h4.956c1.43 0 2.588 1.264 2.588 2.824V30.402zM16.866 16.495c0 1.559-1.158 2.823-2.588 2.823H9.322c-1.429 0-2.587-1.264-2.587-2.823v-2.694c0-1.56 1.158-2.824 2.587-2.824h4.956c1.43 0 2.588 1.264 2.588 2.824V16.495zM79.109 90.546c0 1.832-1.139 3.975-2.966 3.975H24.542c-1.828 0-3.651-2.143-3.651-3.975V56.081c0-1.831 1.823-2.656 3.651-2.656h51.602c1.827 0 2.966 0.825 2.966 2.656V90.546zM79.109 43.066c0 1.749-1.37 3.509-3.279 3.509H24.11c-1.909 0-3.22-1.76-3.22-3.509V8.229c0-1.749 1.311-2.75 3.22-2.75h51.72c1.909 0 3.279 1 3.279 2.75V43.066zM93.35 86.032c0 1.559-1.157 2.823-2.587 2.823h-4.956c-1.429 0-2.588-1.265-2.588-2.823v-2.693c0-1.56 1.159-2.824 2.588-2.824h4.956c1.43 0 2.587 1.265 2.587 2.824V86.032zM93.35 72.124c0 1.561-1.157 2.824-2.587 2.824h-4.956c-1.429 0-2.588-1.264-2.588-2.824v-2.693c0-1.559 1.159-2.823 2.588-2.823h4.956c1.43 0 2.587 1.265 2.587 2.823V72.124zM93.35 58.217c0 1.561-1.157 2.824-2.587 2.824h-4.956c-1.429 0-2.588-1.264-2.588-2.824v-2.694c0-1.559 1.159-2.823 2.588-2.823h4.956c1.43 0 2.587 1.265 2.587 2.823V58.217zM93.35 44.31c0 1.559-1.157 2.823-2.587 2.823h-4.956c-1.429 0-2.588-1.264-2.588-2.823v-2.694c0-1.56 1.159-2.824 2.588-2.824h4.956c1.43 0 2.587 1.264 2.587 2.824V44.31zM93.35 30.402c0 1.56-1.157 2.824-2.587 2.824h-4.956c-1.429 0-2.588-1.264-2.588-2.824v-2.694c0-1.56 1.159-2.824 2.588-2.824h4.956c1.43 0 2.587 1.264 2.587 2.824V30.402zM93.35 16.495c0 1.559-1.157 2.823-2.587 2.823h-4.956c-1.429 0-2.588-1.264-2.588-2.823v-2.694c0-1.56 1.159-2.824 2.588-2.824h4.956c1.43 0 2.587 1.264 2.587 2.824V16.495z" 
        fill="white" 
        data-fill-palette-color="accent">
    </path>
</svg>